<svg width="44" height="76" viewBox="0 0 44 76" fill="none" xmlns="http://www.w3.org/2000/svg">
<g clip-path="url(#clip0_1_40156)">
<g clip-path="url(#clip1_1_40156)">
<path d="M16.997 39.596C17.071 39.533 17.145 39.454 17.219 39.382V50.01C17.219 50.95 16.539 51.972 15.407 51.972C15.193 51.972 15.252 51.983 15.027 51.99C14.253 52.01 13.902 51.993 13.451 51.993C12.496 51.993 11.719 50.985 11.719 50.015V42.721C11.766 42.706 11.813 42.701 11.86 42.687C14.355 41.887 15.923 40.527 16.86 39.715L16.998 39.596H16.997ZM17.219 30.475C18.109 31.63 18.677 32.769 18.519 34.598C18.368 36.348 17.205 38.095 16.344 38.839C15.429 39.629 13.974 40.959 11.555 41.734C10.8764 41.9571 10.1672 42.0732 9.45296 42.078C7.30296 42.078 5.95796 40.938 5.60096 40.537C4.56096 39.371 3.79796 36.874 3.70696 35.379C3.54696 32.723 6.74296 30.416 8.17196 29.475C9.59686 28.5526 11.2585 28.0628 12.956 28.065C13.734 28.081 15.483 28.221 17.219 30.475ZM6.71996 36.762C6.10496 34.932 5.38496 34.23 5.08796 34.798C4.69296 35.555 5.17096 38.798 6.56396 39.77C7.02896 40.094 7.46896 38.988 6.71996 36.762ZM12.207 34.226L12.162 34.164C12.0289 33.9832 11.8297 33.8624 11.6079 33.8279C11.3861 33.7934 11.1596 33.8481 10.978 33.98L10.118 34.524C9.93687 34.6571 9.81586 34.8565 9.78137 35.0785C9.74689 35.3006 9.80176 35.5273 9.93396 35.709L9.97896 35.77C10.112 35.9511 10.3114 36.0721 10.5335 36.1066C10.7556 36.1411 10.9822 36.0862 11.164 35.954L12.024 35.411C12.2049 35.2778 12.3257 35.0783 12.36 34.8563C12.3943 34.6342 12.3393 34.4076 12.207 34.226ZM31.547 42.686C29.053 41.887 27.485 40.527 26.547 39.715L26.41 39.595C26.337 39.532 26.263 39.454 26.189 39.382V50.01C26.189 50.95 26.869 51.972 28.001 51.972C28.215 51.972 28.156 51.983 28.381 51.989C29.156 52.011 29.506 51.993 29.957 51.993C30.913 51.993 31.689 50.985 31.689 50.015V42.721C31.641 42.709 31.597 42.7 31.547 42.686ZM39.701 35.378C39.711 36.876 38.847 39.371 37.808 40.537C37.345 41.056 36.198 41.887 34.748 41.992C34.586 42.004 34.341 42.06 33.925 42.06C33.474 42.06 32.821 41.994 31.853 41.734C29.436 40.959 27.979 39.628 27.065 38.839C26.203 38.095 25.041 36.348 24.89 34.598C24.731 32.769 25.3 31.63 26.19 30.475C27.925 28.221 29.675 28.081 30.453 28.065C30.533 28.063 30.616 28.062 30.703 28.062C31.689 28.062 33.147 28.205 35.033 29.349C36.631 30.318 38.71 32.428 38.925 32.743C39.701 33.881 39.7 35.129 39.701 35.379V35.378ZM33.291 34.524L32.431 33.98C32.2492 33.8478 32.0226 33.7929 31.8005 33.8274C31.5784 33.8619 31.379 33.9829 31.246 34.164L31.202 34.226C31.0698 34.4077 31.0149 34.6344 31.0494 34.8565C31.0839 35.0786 31.2049 35.2779 31.386 35.411L32.245 35.954C32.4267 36.0862 32.6534 36.1411 32.8754 36.1066C33.0975 36.0721 33.2969 35.9511 33.43 35.77L33.475 35.709C33.6072 35.5273 33.662 35.3006 33.6276 35.0785C33.5931 34.8565 33.4721 34.6571 33.291 34.524ZM38.321 34.798C38.024 34.23 37.304 34.933 36.689 36.762C35.939 38.988 36.38 40.094 36.845 39.77C38.238 38.797 38.716 35.555 38.321 34.798Z" fill="#1D1D1F"/>
</g>
</g>
<path d="M0.732391 72L3.84958 63.5449H4.89255L8.00974 72H6.90231L6.0527 69.5801H2.68942L1.83981 72H0.732391ZM4.32419 64.9102L2.99997 68.6836H5.74216L4.41794 64.9102H4.32419ZM9.78231 64.4648C9.39559 64.4648 9.07919 64.1484 9.07919 63.7617C9.07919 63.375 9.39559 63.0586 9.78231 63.0586C10.169 63.0586 10.4854 63.375 10.4854 63.7617C10.4854 64.1484 10.169 64.4648 9.78231 64.4648ZM9.26669 72V65.6836H10.2862V72H9.26669ZM12.0881 72V65.6836H13.1076V66.6211H13.2014C13.4416 65.959 14.0334 65.5723 14.8889 65.5723C15.0822 65.5723 15.299 65.5957 15.3986 65.6133V66.6035C15.1877 66.5684 14.9943 66.5449 14.7717 66.5449C13.799 66.5449 13.1076 67.1602 13.1076 68.0859V72H12.0881ZM16.6673 72V63.5449H19.8548C21.4427 63.5449 22.5677 64.6406 22.5677 66.2461V66.2578C22.5677 67.8633 21.4427 68.9824 19.8548 68.9824H17.722V72H16.6673ZM19.5853 64.4824H17.722V68.0449H19.5853C20.7923 68.0449 21.4896 67.3828 21.4896 66.2695V66.2578C21.4896 65.1445 20.7923 64.4824 19.5853 64.4824ZM26.4672 72.1113C24.6684 72.1113 23.5551 70.8691 23.5551 68.8477V68.8359C23.5551 66.8086 24.6684 65.5723 26.4672 65.5723C28.2661 65.5723 29.3793 66.8086 29.3793 68.8359V68.8477C29.3793 70.8691 28.2661 72.1113 26.4672 72.1113ZM26.4672 71.209C27.6625 71.209 28.3364 70.3359 28.3364 68.8477V68.8359C28.3364 67.3418 27.6625 66.4746 26.4672 66.4746C25.2719 66.4746 24.5981 67.3418 24.5981 68.8359V68.8477C24.5981 70.3359 25.2719 71.209 26.4672 71.209ZM33.1734 72.1113C31.5738 72.1113 30.525 70.8164 30.525 68.8477V68.8359C30.525 66.8555 31.5679 65.5723 33.1734 65.5723C34.0406 65.5723 34.7965 66.0059 35.1422 66.6797H35.2359V63.1758H36.2554V72H35.2359V70.9922H35.1422C34.7554 71.6953 34.0523 72.1113 33.1734 72.1113ZM33.4078 71.209C34.5562 71.209 35.2593 70.3066 35.2593 68.8477V68.8359C35.2593 67.377 34.5562 66.4746 33.4078 66.4746C32.2535 66.4746 31.5679 67.3652 31.5679 68.8359V68.8477C31.5679 70.3184 32.2535 71.209 33.4078 71.209ZM40.2604 72.1113C38.8542 72.1113 37.8874 71.4316 37.7702 70.3887H38.8132C38.9831 70.916 39.487 71.2617 40.2956 71.2617C41.1452 71.2617 41.7487 70.8574 41.7487 70.2832V70.2715C41.7487 69.8438 41.4265 69.5449 40.6472 69.3574L39.6686 69.123C38.485 68.8418 37.9518 68.3262 37.9518 67.418V67.4121C37.9518 66.3633 38.9597 65.5723 40.3015 65.5723C41.6257 65.5723 42.5456 66.2344 42.6862 67.2656H41.6843C41.5495 66.7676 41.0573 66.4219 40.2956 66.4219C39.5456 66.4219 38.9948 66.8086 38.9948 67.3652V67.377C38.9948 67.8047 39.3112 68.0742 40.0554 68.2559L41.028 68.4902C42.2175 68.7773 42.7917 69.293 42.7917 70.1953V70.207C42.7917 71.332 41.696 72.1113 40.2604 72.1113Z" fill="black" fill-opacity="0.8"/>
<a href="https://www.apple.com/airpods-4/">
<rect fill="black" fill-opacity="0" x="0.107391" y="0.839844" width="43.0964" height="14.3203"/>
</a>
<defs>
<clipPath id="clip0_1_40156">
<rect width="38" height="56" fill="white" transform="translate(2.70117)"/>
</clipPath>
<clipPath id="clip1_1_40156">
<rect width="38" height="56" fill="white" transform="translate(2.70117)"/>
</clipPath>
</defs>
</svg>
