<svg width="40" height="56" viewBox="0 0 40 56" fill="none" xmlns="http://www.w3.org/2000/svg">
<g clip-path="url(#clip0_1_40165)">
<g clip-path="url(#clip1_1_40165)">
<path d="M27.6461 41.8358C28.4972 42.0617 29.375 42.1705 30.2554 42.1591V50.5869C30.2286 50.9428 30.079 51.2784 29.8321 51.5362C29.5852 51.7939 29.2565 51.9579 28.902 52H27.3538C26.9556 51.9565 26.5882 51.7656 26.3237 51.4647C26.0592 51.1639 25.9169 50.775 25.9247 50.3745V41.1845C26.4839 41.4384 27.0589 41.656 27.6461 41.8358ZM25.9247 40.0887C24.6705 39.4494 23.5473 38.5806 22.6133 37.5273C21.6744 36.5043 21.1085 35.1943 21.0072 33.8094C20.9648 32.6336 21.2421 31.4682 21.8095 30.4374C22.2939 29.6461 22.96 28.9818 23.7527 28.4997C24.5454 28.0175 25.4416 27.7315 26.367 27.6653C26.413 27.6653 26.4593 27.6661 26.5058 27.6676C27.8977 27.7136 31.261 28.0264 34.2817 32.0266C34.1184 32.0328 33.9555 32.0473 33.7936 32.0701C32.9832 32.2064 32.2108 32.5125 31.5269 32.9681C30.8429 33.4238 30.263 34.0188 29.8251 34.7142C28.9866 36.0086 28.5562 37.5251 28.5897 39.067C28.5977 39.2949 28.6265 39.5215 28.6756 39.7441C28.788 40.2346 28.9913 40.6997 29.2749 41.1154C28.8223 41.0821 28.3742 41.0029 27.9375 40.8792C27.2459 40.6719 26.5726 40.4075 25.9247 40.0887ZM26.9903 33.7557C27.1834 33.8883 27.4163 33.9503 27.6497 33.9312C27.8832 33.9121 28.1029 33.8131 28.2718 33.6508L28.3298 33.5784C28.4361 33.4655 28.5141 33.329 28.5575 33.1801C28.6009 33.0313 28.6086 32.8742 28.5798 32.7219C28.551 32.5695 28.4866 32.4261 28.3918 32.3034C28.297 32.1806 28.1746 32.082 28.0344 32.0156L26.5244 31.0438C26.314 30.8971 26.0603 30.8253 25.8042 30.8401C25.5481 30.855 25.3043 30.9555 25.1122 31.1255L25.0273 31.2079C24.9393 31.3156 24.8755 31.4409 24.8401 31.5753C24.8048 31.7098 24.7988 31.8503 24.8225 31.9873C24.8462 32.1243 24.8991 32.2546 24.9776 32.3694C25.056 32.4842 25.1583 32.5807 25.2773 32.6525L26.9903 33.7557ZM38.7248 37.9512C38.686 38.1531 38.6336 38.3522 38.5677 38.5469C38.407 39.0091 38.1934 39.4511 37.9313 39.8643C37.6167 40.4195 37.2157 40.921 36.7433 41.35C36.3545 41.7366 35.8909 42.0399 35.381 42.2413C34.871 42.4427 34.3253 42.5381 33.7772 42.5215C33.1479 42.5229 32.523 42.4164 31.9296 42.2066C31.8554 42.1719 31.7973 42.1376 31.7275 42.103C31.4457 41.9657 31.1727 41.811 30.91 41.6398C30.6918 41.4977 30.4864 41.3367 30.2962 41.1586C30.2818 41.1449 30.2694 41.1311 30.2555 41.1173C29.8245 40.6951 29.5283 40.1547 29.4041 39.5643C29.3736 39.429 29.3532 39.2916 29.3433 39.1532C29.1867 37.3311 30.281 33.4298 33.9199 32.8091C34.1482 32.769 34.3795 32.7482 34.6112 32.747C34.6786 32.747 34.7502 32.7581 34.8194 32.7623C35.0847 32.7743 35.3471 32.8222 35.5994 32.9047C35.6468 32.9212 35.6883 32.9481 35.7348 32.9659C35.9825 33.0583 36.2223 33.1706 36.4518 33.3017C37.1912 33.728 37.8019 34.3458 38.2196 35.09C38.4839 35.5786 38.6639 36.1083 38.7519 36.6568C38.8119 37.087 38.8028 37.524 38.7248 37.9512ZM37.4211 37.1712C37.2724 36.6825 36.7093 36.6932 36.3587 37.1712L34.6163 39.5726C34.3496 40.0719 34.5514 40.6776 35.0189 40.635H35.02C35.7541 40.4161 36.3918 39.9539 36.8282 39.3244C37.2646 38.6949 37.4737 37.9354 37.4211 37.1712ZM9.97113 42.1589V50.5867C9.99788 50.9427 10.1475 51.2783 10.3944 51.5361C10.6413 51.7939 10.9702 51.9579 11.3246 52H12.8727C13.2709 51.9565 13.6384 51.7656 13.9029 51.4648C14.1674 51.1639 14.3097 50.775 14.3018 50.3745V41.1845C13.7427 41.4383 13.1677 41.6557 12.5805 41.8354C11.7295 42.0615 10.8516 42.1702 9.97113 42.1589ZM18.4168 30.4372C18.9843 31.468 19.2615 32.6334 19.2191 33.8092C19.118 35.1941 18.5522 36.5042 17.6133 37.5273C16.6794 38.5807 15.5563 39.4495 14.302 40.0887C13.6541 40.4074 12.9808 40.6716 12.2891 40.8787C11.8516 41.0026 11.4026 41.0818 10.9491 41.115C11.2343 40.6999 11.4385 40.2346 11.5508 39.7436C11.6 39.521 11.6288 39.2944 11.6367 39.0665C11.6702 37.5248 11.2398 36.0085 10.4013 34.7142C9.96348 34.0189 9.38366 33.4238 8.69985 32.9682C8.01604 32.5125 7.24367 32.2064 6.43333 32.07C6.27148 32.0472 6.10857 32.0327 5.94523 32.0265C8.96593 28.0265 12.3292 27.7135 13.7211 27.6675C13.7678 27.666 13.8137 27.6652 13.8599 27.6652C14.7853 27.7315 15.6814 28.0176 16.474 28.4998C17.2665 28.9819 17.9325 29.646 18.4168 30.4372ZM15.1995 31.2072L15.1146 31.1248C14.9225 30.9548 14.6788 30.8543 14.4227 30.8394C14.1665 30.8246 13.9129 30.8964 13.7024 31.0431L12.1924 32.0149C12.0523 32.0813 11.9299 32.1799 11.8351 32.3027C11.7403 32.4254 11.6759 32.5688 11.6471 32.7211C11.6183 32.8735 11.6259 33.0305 11.6693 33.1794C11.7127 33.3282 11.7907 33.4647 11.8969 33.5777L11.955 33.6501C12.124 33.8124 12.3437 33.9114 12.5771 33.9305C12.8106 33.9496 13.0435 33.8876 13.2365 33.755L14.9503 32.6518C15.0692 32.5799 15.1713 32.4834 15.2496 32.3686C15.328 32.2539 15.3807 32.1237 15.4044 31.9867C15.428 31.8498 15.422 31.7095 15.3866 31.5751C15.3513 31.4407 15.2874 31.3148 15.1995 31.2072ZM9.97113 41.1172C9.95723 41.131 9.94483 41.1447 9.93043 41.1584C9.74031 41.3365 9.53493 41.4975 9.31663 41.6396C9.05395 41.8108 8.78089 41.9655 8.49903 42.1028C8.42903 42.1374 8.37123 42.1717 8.29703 42.2064C7.70368 42.4162 7.07877 42.5227 6.44943 42.5213C5.90139 42.5379 5.35573 42.4425 4.84576 42.2411C4.33579 42.0398 3.87221 41.7365 3.48333 41.35C3.0109 40.9209 2.60984 40.4193 2.29523 39.864C2.03312 39.4508 1.81958 39.0088 1.65883 38.5466C1.59301 38.3519 1.54052 38.1528 1.50173 37.9509C1.42377 37.5236 1.41462 37.0866 1.47463 36.6564C1.56276 36.1081 1.74276 35.5785 2.00703 35.09C2.42487 34.3458 3.03573 33.7281 3.77523 33.302C4.0046 33.1711 4.24418 33.0589 4.49163 32.9665C4.53843 32.9486 4.58013 32.9216 4.62763 32.905C4.88 32.8225 5.14239 32.7746 5.40763 32.7626C5.47683 32.7584 5.54843 32.7473 5.61583 32.7473C5.8476 32.7485 6.07886 32.7693 6.30713 32.8094C9.94603 33.4301 11.0403 37.3314 10.8837 39.1535C10.8738 39.2919 10.8535 39.4293 10.8229 39.5646C10.6987 40.1551 10.4022 40.695 9.97113 41.1172ZM5.61033 39.5726L3.86793 37.1714C3.51733 36.6934 2.95423 36.6827 2.80553 37.1714C2.75512 37.546 2.7799 37.9268 2.8784 38.2916C2.97691 38.6565 3.14717 38.998 3.37923 39.2963C3.5759 39.6327 3.83959 39.9251 4.15394 40.1554C4.46828 40.3857 4.82659 40.5489 5.20663 40.635C5.67423 40.6776 5.87703 40.0719 5.61033 39.5726Z" fill="#1D1D1F"/>
</g>
</g>
<defs>
<clipPath id="clip0_1_40165">
<rect width="39" height="56" fill="white" transform="translate(0.613281)"/>
</clipPath>
<clipPath id="clip1_1_40165">
<rect width="39" height="54" fill="white" transform="translate(0.613281 2)"/>
</clipPath>
</defs>
</svg>
