<svg width="70" height="76" viewBox="0 0 70 76" fill="none" xmlns="http://www.w3.org/2000/svg">
<g clip-path="url(#clip0_1_40172)">
<g clip-path="url(#clip1_1_40172)">
<path d="M45.779 21.9239C42.6684 19.309 38.7014 17.9356 34.6399 18.0675C30.6222 17.9717 26.705 19.33 23.6092 21.8926C24.8751 20.1515 26.5334 18.7331 28.4498 17.7524C30.3661 16.7718 32.4865 16.2564 34.6392 16.2481L34.6716 16.2471L34.7039 16.2481C36.862 16.2791 38.9839 16.8073 40.9047 17.7917C42.8255 18.7761 44.4935 20.1901 45.779 21.9239ZM51.6698 31.3754C51.6675 31.2536 51.6633 31.1341 51.659 31.0148L49.535 31.1264C49.538 31.4019 49.5361 31.6101 49.5469 31.7405C49.5619 31.9256 49.6025 31.9696 49.7542 31.9605C49.9059 31.9514 50.0388 31.948 50.0388 31.948C50.0388 31.948 50.0418 32.6197 50.0418 33.3933C50.0238 33.6253 50.0946 33.8555 50.2399 34.0374C50.2146 34.0235 50.1939 34.0114 50.1669 33.9967C49.8146 33.8486 49.4237 33.8192 49.0533 33.9129C48.7707 33.9993 48.4978 34.115 48.2392 34.258C48.3503 35.0117 48.1916 35.7804 47.7912 36.4286C47.0472 37.9412 43.3173 45.9478 41.4681 48.5123C41.0637 49.153 40.535 49.7063 39.9133 50.1394C39.9334 50.3888 39.972 50.6364 40.0288 50.8801C40.1175 51.1566 40.2788 51.4043 40.4957 51.5973C40.7127 51.7902 40.9775 51.9215 41.2625 51.9774C42.7912 52.2284 44.2134 50.3409 44.7589 49.535C45.3044 48.7291 46.2149 47.2701 48.1189 43.7573C49.7183 40.8065 51.3673 37.1737 51.2929 35.8348C51.2649 35.3994 51.1366 34.9763 50.9179 34.5988C50.8165 34.4455 50.6852 34.3142 50.532 34.2127C50.5717 34.2223 50.6124 34.2278 50.6533 34.229C50.8065 34.229 51.2739 34.1299 51.2739 33.4151C51.2739 32.7003 51.2569 31.8827 51.2569 31.8827C51.2569 31.8827 51.2893 31.8801 51.4874 31.8708C51.6391 31.8637 51.6721 31.7838 51.6718 31.5656C51.6716 31.5086 51.6716 31.445 51.6698 31.3754ZM21.7638 24.0283C22.057 23.427 22.3093 22.8067 22.5191 22.1715C24.0045 19.1633 28.7465 15.4063 34.6385 15.4063L34.6716 15.4053L34.7042 15.4063C40.5964 15.4063 45.3382 19.1633 46.8242 22.1715C47.0338 22.8067 47.286 23.4271 47.5792 24.0283C48.6954 25.9374 49.355 28.0787 49.5066 30.285L51.6113 30.1744C51.4427 27.5058 50.6168 24.9203 49.2071 22.6481C48.9161 22.2468 48.6026 21.8624 48.2679 21.4968C46.7889 19.2447 44.7775 17.392 42.4117 16.1028C40.0459 14.8135 37.3987 14.1274 34.7045 14.1053L34.6716 14.1061L34.639 14.1053C31.9447 14.1273 29.2975 14.8134 26.9316 16.1026C24.5658 17.3919 22.5543 19.2446 21.0754 21.4968C20.7405 21.8623 20.4269 22.2467 20.136 22.6481C18.726 24.9207 17.9 27.5067 17.7316 30.1758L19.8364 30.2863C19.9877 28.0796 20.6474 25.9378 21.7638 24.0283ZM28.9979 39.622C27.8901 37.3849 26.6297 35.2266 25.2257 33.1625C24.8881 32.772 24.4308 32.5044 23.925 32.4014C23.4193 32.2984 22.8936 32.3658 22.4303 32.5932C22.3028 32.6857 22.182 32.7872 22.0689 32.8968C21.418 33.6638 21.5137 34.5638 22.1249 35.8068C22.8689 37.3194 26.5988 45.326 28.448 47.8906C29.3656 49.1629 30.0971 49.8944 31.238 49.7952C31.5969 49.7651 31.9345 49.6124 32.1942 49.3628C32.5513 48.8898 32.74 48.311 32.7301 47.7184C32.6407 46.8502 32.3521 46.0144 31.887 45.276C31.7627 45.0277 29.469 40.5891 28.9979 39.622ZM27.8129 48.512C25.9637 45.9476 22.2336 37.941 21.4897 36.4284C21.0892 35.7803 20.9305 35.0115 21.0416 34.2578C20.7829 34.1148 20.51 33.9992 20.2274 33.9127C19.8685 33.8251 19.4914 33.8503 19.1474 33.9847C19.2591 33.8084 19.3127 33.6015 19.3006 33.3932C19.3006 32.6195 19.3036 31.9479 19.3036 31.9479C19.3036 31.9479 19.4368 31.951 19.5885 31.9603C19.7402 31.9696 19.7806 31.9257 19.7958 31.7403C19.8064 31.6103 19.8046 31.4023 19.8075 31.1274L17.6835 31.0158C17.6791 31.1348 17.6749 31.2538 17.6727 31.3751C17.6708 31.4751 17.6727 31.5628 17.6739 31.6358C17.6773 31.8014 17.7239 31.8642 17.8554 31.8703C18.0534 31.8796 18.086 31.8822 18.086 31.8822C18.086 31.8822 18.0687 32.7 18.0687 33.4149C18.0687 34.1298 18.5361 34.2288 18.6893 34.2288C18.6993 34.2288 18.7145 34.2272 18.7284 34.2261C18.5839 34.3257 18.46 34.4522 18.3632 34.5986C18.1447 34.9762 18.0164 35.3992 17.9883 35.8346C17.9138 37.1735 19.5629 40.8063 21.1623 43.7571C23.0662 47.2699 23.9766 48.7288 24.5223 49.5347C25.068 50.3406 26.4899 52.2282 28.0186 51.9772C28.3035 51.9213 28.5683 51.7901 28.7852 51.5971C29.0022 51.4041 29.1634 51.1565 29.2521 50.88C29.309 50.6363 29.3476 50.3887 29.3677 50.1393C28.7459 49.7062 28.2173 49.1528 27.8129 48.512ZM47.1562 35.8065C47.7674 34.5638 47.8631 33.6638 47.2122 32.8965C47.099 32.7869 46.9782 32.6855 46.8508 32.5929C46.3874 32.3655 45.8617 32.2981 45.356 32.4011C44.8502 32.5041 44.3928 32.7717 44.0552 33.1622C42.6513 35.2264 41.391 37.3846 40.2831 39.6217C39.8119 40.5888 37.5182 45.0274 37.3943 45.2753C36.9292 46.0138 36.6407 46.8496 36.5512 47.7178C36.5413 48.3104 36.73 48.8893 37.0873 49.3622C37.3468 49.6119 37.6845 49.7646 38.0434 49.7946C39.1842 49.8938 39.9155 49.1624 40.8334 47.89C42.6822 45.3257 46.4123 37.3191 47.1562 35.8065Z" fill="#1D1D1F"/>
</g>
</g>
<path d="M0.532017 72L3.6492 63.5449H4.69217L7.80936 72H6.70194L5.85233 69.5801H2.48905L1.63944 72H0.532017ZM4.12381 64.9102L2.79959 68.6836H5.54178L4.21756 64.9102H4.12381ZM9.58194 64.4648C9.19522 64.4648 8.87881 64.1484 8.87881 63.7617C8.87881 63.375 9.19522 63.0586 9.58194 63.0586C9.96866 63.0586 10.2851 63.375 10.2851 63.7617C10.2851 64.1484 9.96866 64.4648 9.58194 64.4648ZM9.06631 72V65.6836H10.0858V72H9.06631ZM11.8877 72V65.6836H12.9073V66.6211H13.001C13.2412 65.959 13.833 65.5723 14.6885 65.5723C14.8819 65.5723 15.0987 65.5957 15.1983 65.6133V66.6035C14.9873 66.5684 14.794 66.5449 14.5713 66.5449C13.5987 66.5449 12.9073 67.1602 12.9073 68.0859V72H11.8877ZM16.4669 72V63.5449H19.6544C21.2423 63.5449 22.3673 64.6406 22.3673 66.2461V66.2578C22.3673 67.8633 21.2423 68.9824 19.6544 68.9824H17.5216V72H16.4669ZM19.3849 64.4824H17.5216V68.0449H19.3849C20.5919 68.0449 21.2892 67.3828 21.2892 66.2695V66.2578C21.2892 65.1445 20.5919 64.4824 19.3849 64.4824ZM26.2669 72.1113C24.468 72.1113 23.3548 70.8691 23.3548 68.8477V68.8359C23.3548 66.8086 24.468 65.5723 26.2669 65.5723C28.0657 65.5723 29.179 66.8086 29.179 68.8359V68.8477C29.179 70.8691 28.0657 72.1113 26.2669 72.1113ZM26.2669 71.209C27.4622 71.209 28.136 70.3359 28.136 68.8477V68.8359C28.136 67.3418 27.4622 66.4746 26.2669 66.4746C25.0715 66.4746 24.3977 67.3418 24.3977 68.8359V68.8477C24.3977 70.3359 25.0715 71.209 26.2669 71.209ZM32.973 72.1113C31.3734 72.1113 30.3246 70.8164 30.3246 68.8477V68.8359C30.3246 66.8555 31.3676 65.5723 32.973 65.5723C33.8402 65.5723 34.5961 66.0059 34.9418 66.6797H35.0355V63.1758H36.0551V72H35.0355V70.9922H34.9418C34.5551 71.6953 33.8519 72.1113 32.973 72.1113ZM33.2074 71.209C34.3558 71.209 35.059 70.3066 35.059 68.8477V68.8359C35.059 67.377 34.3558 66.4746 33.2074 66.4746C32.0531 66.4746 31.3676 67.3652 31.3676 68.8359V68.8477C31.3676 70.3184 32.0531 71.209 33.2074 71.209ZM40.0601 72.1113C38.6538 72.1113 37.687 71.4316 37.5698 70.3887H38.6128C38.7827 70.916 39.2866 71.2617 40.0952 71.2617C40.9448 71.2617 41.5483 70.8574 41.5483 70.2832V70.2715C41.5483 69.8438 41.2261 69.5449 40.4468 69.3574L39.4683 69.123C38.2847 68.8418 37.7515 68.3262 37.7515 67.418V67.4121C37.7515 66.3633 38.7593 65.5723 40.1011 65.5723C41.4253 65.5723 42.3452 66.2344 42.4858 67.2656H41.4839C41.3491 66.7676 40.8569 66.4219 40.0952 66.4219C39.3452 66.4219 38.7944 66.8086 38.7944 67.3652V67.377C38.7944 67.8047 39.1108 68.0742 39.855 68.2559L40.8276 68.4902C42.0171 68.7773 42.5913 69.293 42.5913 70.1953V70.207C42.5913 71.332 41.4956 72.1113 40.0601 72.1113ZM47.4373 72V63.5449H48.6619L51.5564 70.5996H51.6501L54.5447 63.5449H55.7693V72H54.7849V65.543H54.7205L52.0486 72H51.158L48.4861 65.543H48.4216V72H47.4373ZM59.411 72.1113C58.2098 72.1113 57.3016 71.3848 57.3016 70.2363V70.2246C57.3016 69.0996 58.1337 68.4492 59.6044 68.3613L61.4149 68.25V67.6758C61.4149 66.8965 60.9403 66.4746 59.9969 66.4746C59.2411 66.4746 58.743 66.7559 58.579 67.248L58.5731 67.2656H57.5536L57.5594 67.2305C57.7235 66.2402 58.6844 65.5723 60.0321 65.5723C61.5731 65.5723 62.4344 66.3633 62.4344 67.6758V72H61.4149V71.0684H61.3212C60.9227 71.7422 60.2606 72.1113 59.411 72.1113ZM58.3446 70.2129C58.3446 70.8516 58.8895 71.2266 59.6219 71.2266C60.659 71.2266 61.4149 70.5469 61.4149 69.6445V69.0703L59.7274 69.1758C58.7665 69.2344 58.3446 69.5742 58.3446 70.2012V70.2129ZM63.6738 72L65.8359 68.8418L63.6504 65.6836H64.8515L66.3515 68.0332H66.4453L67.9277 65.6836H69.0703L66.9258 68.8008L69.0996 72H67.9043L66.4101 69.6152H66.3164L64.8164 72H63.6738Z" fill="black" fill-opacity="0.8"/>
<a href="https://www.apple.com/airpods-max/">
<rect fill="black" fill-opacity="0" x="0.0964699" y="0.839844" width="69.3938" height="14.3203"/>
</a>
<defs>
<clipPath id="clip0_1_40172">
<rect width="34" height="56" fill="white" transform="translate(17.6719)"/>
</clipPath>
<clipPath id="clip1_1_40172">
<rect width="34" height="54" fill="white" transform="translate(17.6719 2)"/>
</clipPath>
</defs>
</svg>
