<svg width="32" height="44" viewBox="0 0 32 44" fill="none" xmlns="http://www.w3.org/2000/svg">
<path d="M22.9867 27.202L19.1167 23.332C19.8177 22.403 20.2387 21.251 20.2387 20C20.2387 16.94 17.7497 14.45 14.6887 14.45C11.6287 14.45 9.13867 16.94 9.13867 20C9.13867 23.061 11.6287 25.55 14.6887 25.55C15.9397 25.55 17.0917 25.129 18.0207 24.428L21.8907 28.298C22.0417 28.449 22.2407 28.526 22.4387 28.526C22.6367 28.526 22.8347 28.45 22.9867 28.298C23.2897 27.995 23.2897 27.505 22.9867 27.202ZM10.2387 20C10.2387 17.546 12.2357 15.55 14.6887 15.55C17.1427 15.55 19.1387 17.547 19.1387 20C19.1387 22.453 17.1427 24.45 14.6887 24.45C12.2347 24.45 10.2387 22.454 10.2387 20Z" fill="black" fill-opacity="0.8"/>
</svg>
