<svg width="31" height="44" viewBox="0 0 31 44" fill="none" xmlns="http://www.w3.org/2000/svg">
<path d="M20.1829 16.0283H19.1624C19.053 15.2173 18.6566 14.4723 18.0452 13.9284C17.4337 13.3845 16.6476 13.0776 15.8294 13.0635C15.0111 13.0776 14.225 13.3845 13.6136 13.9284C13.0021 14.4723 12.6058 15.2173 12.4964 16.0283H11.4764C10.9152 16.0286 10.377 16.2517 9.98012 16.6485C9.58321 17.0452 9.35996 17.5833 9.35938 18.1445V25.86C9.35988 26.4211 9.58298 26.9591 9.97972 27.356C10.3765 27.7528 10.9144 27.976 11.4756 27.9767H20.1826C20.7438 27.9762 21.2819 27.753 21.6788 27.3562C22.0757 26.9593 22.2989 26.4212 22.2994 25.86V18.1445C22.2988 17.5834 22.0756 17.0454 21.6788 16.6486C21.282 16.2519 20.744 16.0288 20.1829 16.0283ZM15.8294 14.1631C16.3568 14.1745 16.8645 14.3656 17.2686 14.7048C17.6726 15.0439 17.9489 15.5108 18.0516 16.0283H13.6072C13.7099 15.5108 13.9861 15.0439 14.3902 14.7048C14.7943 14.3656 15.302 14.1745 15.8294 14.1631ZM21.1994 25.86C21.1991 26.1296 21.0919 26.388 20.9013 26.5787C20.7108 26.7693 20.4524 26.8767 20.1828 26.8771H11.4759C11.2063 26.8766 10.9479 26.7693 10.7574 26.5786C10.5668 26.388 10.4597 26.1295 10.4594 25.86V18.1445C10.4597 17.875 10.5669 17.6166 10.7575 17.426C10.9481 17.2354 11.2065 17.1282 11.476 17.1279H20.183C20.4525 17.1282 20.7108 17.2355 20.9013 17.4261C21.0919 17.6166 21.1991 17.875 21.1994 18.1445V25.86Z" fill="black" fill-opacity="0.8"/>
</svg>
