<svg width="30" height="44" viewBox="0 0 30 44" fill="none" xmlns="http://www.w3.org/2000/svg">
<path d="M21.0745 17.6825C20.5536 18.0014 20.1222 18.4472 19.8205 18.9783C19.5189 19.5093 19.3569 20.1083 19.3497 20.719C19.3518 21.4063 19.5554 22.078 19.9354 22.6507C20.3154 23.2235 20.8551 23.6722 21.4876 23.9413C21.2382 24.7459 20.8692 25.5083 20.3928 26.2031C19.7112 27.1843 18.9985 28.1654 17.9141 28.1654C16.8297 28.1654 16.5508 27.5354 15.3011 27.5354C14.0824 27.5354 13.6486 28.1861 12.6571 28.1861C11.6656 28.1861 10.9737 27.2772 10.1784 26.1618C9.12789 24.5992 8.55053 22.7667 8.51562 20.8842C8.51562 17.7858 10.5296 16.1437 12.5125 16.1437C13.566 16.1437 14.4439 16.8356 15.1049 16.8356C15.7349 16.8356 16.7161 16.1023 17.9141 16.1023C18.5301 16.0864 19.1405 16.2222 19.6916 16.4978C20.2428 16.7733 20.7177 17.1802 21.0745 17.6825ZM17.3461 14.7907C17.8742 14.1694 18.1732 13.3858 18.193 12.5707C18.1939 12.4632 18.1835 12.356 18.162 12.2507C17.2549 12.3393 16.416 12.7716 15.8175 13.4591C15.2843 14.0556 14.9741 14.8183 14.9396 15.6176C14.94 15.7148 14.9504 15.8117 14.9706 15.9068C15.0421 15.9203 15.1147 15.9272 15.1875 15.9275C15.6056 15.8942 16.0125 15.7763 16.3836 15.5808C16.7547 15.3854 17.0822 15.1166 17.3461 14.7907Z" fill="black" fill-opacity="0.8"/>
</svg>
