<svg width="66" height="76" viewBox="0 0 66 76" fill="none" xmlns="http://www.w3.org/2000/svg">
<g clip-path="url(#clip0_1_40164)">
<g clip-path="url(#clip1_1_40164)">
<path d="M40.6442 41.8358C41.4952 42.0617 42.3731 42.1705 43.2535 42.1591V50.5869C43.2267 50.9428 43.0771 51.2784 42.8302 51.5362C42.5833 51.7939 42.2545 51.9579 41.9001 52H40.3519C39.9537 51.9565 39.5862 51.7656 39.3217 51.4647C39.0573 51.1639 38.9149 50.775 38.9228 50.3745V41.1845C39.482 41.4384 40.057 41.656 40.6442 41.8358ZM38.9228 40.0887C37.6686 39.4494 36.5454 38.5806 35.6114 37.5273C34.6725 36.5043 34.1065 35.1943 34.0053 33.8094C33.9629 32.6336 34.2402 31.4682 34.8076 30.4374C35.2919 29.6461 35.9581 28.9818 36.7507 28.4997C37.5434 28.0175 38.4397 27.7315 39.3651 27.6653C39.4111 27.6653 39.4573 27.6661 39.5039 27.6676C40.8958 27.7136 44.2591 28.0264 47.2798 32.0266C47.1164 32.0328 46.9535 32.0473 46.7917 32.0701C45.9813 32.2064 45.2088 32.5125 44.5249 32.9681C43.841 33.4238 43.2611 34.0188 42.8232 34.7142C41.9846 36.0086 41.5543 37.5251 41.5878 39.067C41.5958 39.2949 41.6245 39.5215 41.6737 39.7441C41.7861 40.2346 41.9893 40.6997 42.273 41.1154C41.8203 41.0821 41.3723 41.0029 40.9356 40.8792C40.2439 40.6719 39.5707 40.4075 38.9228 40.0887ZM39.9884 33.7557C40.1814 33.8883 40.4143 33.9503 40.6478 33.9312C40.8812 33.9121 41.1009 33.8131 41.2699 33.6508L41.3279 33.5784C41.4341 33.4655 41.5121 33.329 41.5556 33.1801C41.599 33.0313 41.6066 32.8742 41.5778 32.7219C41.549 32.5695 41.4846 32.4261 41.3898 32.3034C41.2951 32.1806 41.1726 32.082 41.0325 32.0156L39.5225 31.0438C39.312 30.8971 39.0584 30.8253 38.8022 30.8401C38.5461 30.855 38.3024 30.9555 38.1103 31.1255L38.0254 31.2079C37.9374 31.3156 37.8735 31.4409 37.8382 31.5753C37.8029 31.7098 37.7968 31.8503 37.8205 31.9873C37.8443 32.1243 37.8971 32.2546 37.9756 32.3694C38.0541 32.4842 38.1563 32.5807 38.2754 32.6525L39.9884 33.7557ZM51.7229 37.9512C51.6841 38.1531 51.6316 38.3522 51.5658 38.5469C51.405 39.0091 51.1915 39.4511 50.9294 39.8643C50.6148 40.4195 50.2137 40.921 49.7414 41.35C49.3525 41.7366 48.889 42.0399 48.379 42.2413C47.869 42.4427 47.3233 42.5381 46.7753 42.5215C46.1459 42.5229 45.521 42.4164 44.9277 42.2066C44.8535 42.1719 44.7954 42.1376 44.7256 42.103C44.4438 41.9657 44.1707 41.811 43.9081 41.6398C43.6898 41.4977 43.4844 41.3367 43.2943 41.1586C43.2799 41.1449 43.2675 41.1311 43.2536 41.1173C42.8226 40.6951 42.5263 40.1547 42.4022 39.5643C42.3716 39.429 42.3513 39.2916 42.3414 39.1532C42.1848 37.3311 43.2791 33.4298 46.918 32.8091C47.1462 32.769 47.3775 32.7482 47.6093 32.747C47.6767 32.747 47.7483 32.7581 47.8175 32.7623C48.0827 32.7743 48.3451 32.8222 48.5975 32.9047C48.6449 32.9212 48.6864 32.9481 48.7329 32.9659C48.9805 33.0583 49.2203 33.1706 49.4499 33.3017C50.1893 33.728 50.8 34.3458 51.2177 35.09C51.482 35.5786 51.6619 36.1083 51.75 36.6568C51.81 37.087 51.8008 37.524 51.7229 37.9512ZM50.4192 37.1712C50.2705 36.6825 49.7074 36.6932 49.3568 37.1712L47.6144 39.5726C47.3477 40.0719 47.5495 40.6776 48.017 40.635H48.0181C48.7521 40.4161 49.3898 39.9539 49.8262 39.3244C50.2626 38.6949 50.4717 37.9354 50.4192 37.1712ZM22.9692 42.1589V50.5867C22.9959 50.9427 23.1456 51.2783 23.3925 51.5361C23.6394 51.7939 23.9682 51.9579 24.3227 52H25.8708C26.269 51.9565 26.6365 51.7656 26.9009 51.4648C27.1654 51.1639 27.3077 50.775 27.2999 50.3745V41.1845C26.7407 41.4383 26.1657 41.6557 25.5786 41.8354C24.7276 42.0615 23.8496 42.1702 22.9692 42.1589ZM31.4149 30.4372C31.9823 31.468 32.2596 32.6334 32.2172 33.8092C32.116 35.1941 31.5502 36.5042 30.6114 37.5273C29.6775 38.5807 28.5543 39.4495 27.3001 40.0887C26.6522 40.4074 25.9789 40.6716 25.2872 40.8787C24.8497 41.0026 24.4007 41.0818 23.9472 41.115C24.2324 40.6999 24.4365 40.2346 24.5489 39.7436C24.5981 39.521 24.6268 39.2944 24.6348 39.0665C24.6682 37.5248 24.2378 36.0085 23.3994 34.7142C22.9615 34.0189 22.3817 33.4238 21.6979 32.9682C21.0141 32.5125 20.2417 32.2064 19.4314 32.07C19.2695 32.0472 19.1066 32.0327 18.9433 32.0265C21.964 28.0265 25.3273 27.7135 26.7192 27.6675C26.7659 27.666 26.8118 27.6652 26.858 27.6652C27.7833 27.7315 28.6795 28.0176 29.472 28.4998C30.2646 28.9819 30.9306 29.646 31.4149 30.4372ZM28.1976 31.2072L28.1127 31.1248C27.9206 30.9548 27.6769 30.8543 27.4207 30.8394C27.1646 30.8246 26.9109 30.8964 26.7005 31.0431L25.1905 32.0149C25.0504 32.0813 24.9279 32.1799 24.8331 32.3027C24.7384 32.4254 24.674 32.5688 24.6452 32.7211C24.6163 32.8735 24.624 33.0305 24.6674 33.1794C24.7108 33.3282 24.7888 33.4647 24.895 33.5777L24.9531 33.6501C25.122 33.8124 25.3417 33.9114 25.5752 33.9305C25.8086 33.9496 26.0415 33.8876 26.2346 33.755L27.9484 32.6518C28.0673 32.5799 28.1693 32.4834 28.2477 32.3686C28.326 32.2539 28.3788 32.1237 28.4024 31.9867C28.4261 31.8498 28.42 31.7095 28.3847 31.5751C28.3494 31.4407 28.2855 31.3148 28.1976 31.2072ZM22.9692 41.1172C22.9553 41.131 22.9429 41.1447 22.9285 41.1584C22.7384 41.3365 22.533 41.4975 22.3147 41.6396C22.052 41.8108 21.7789 41.9655 21.4971 42.1028C21.4271 42.1374 21.3693 42.1717 21.2951 42.2064C20.7017 42.4162 20.0768 42.5227 19.4475 42.5213C18.8994 42.5379 18.3538 42.4425 17.8438 42.2411C17.3338 42.0398 16.8703 41.7365 16.4814 41.35C16.0089 40.9209 15.6079 40.4193 15.2933 39.864C15.0312 39.4508 14.8176 39.0088 14.6569 38.5466C14.5911 38.3519 14.5386 38.1528 14.4998 37.9509C14.4218 37.5236 14.4127 37.0866 14.4727 36.6564C14.5608 36.1081 14.7408 35.5785 15.0051 35.09C15.4229 34.3458 16.0338 33.7281 16.7733 33.302C17.0026 33.1711 17.2422 33.0589 17.4897 32.9665C17.5365 32.9486 17.5782 32.9216 17.6257 32.905C17.878 32.8225 18.1404 32.7746 18.4057 32.7626C18.4749 32.7584 18.5465 32.7473 18.6139 32.7473C18.8457 32.7485 19.0769 32.7693 19.3052 32.8094C22.9441 33.4301 24.0384 37.3314 23.8818 39.1535C23.8719 39.2919 23.8515 39.4293 23.821 39.5646C23.6967 40.1551 23.4003 40.695 22.9692 41.1172ZM18.6084 39.5726L16.866 37.1714C16.5154 36.6934 15.9523 36.6827 15.8036 37.1714C15.7532 37.546 15.7779 37.9268 15.8764 38.2916C15.975 38.6565 16.1452 38.998 16.3773 39.2963C16.574 39.6327 16.8376 39.9251 17.152 40.1554C17.4663 40.3857 17.8246 40.5489 18.2047 40.635C18.6723 40.6776 18.8751 40.0719 18.6084 39.5726Z" fill="#1D1D1F"/>
</g>
</g>
<path d="M1.17278 72L4.28997 63.5449H5.33294L8.45012 72H7.3427L6.49309 69.5801H3.12981L2.2802 72H1.17278ZM4.76458 64.9102L3.44036 68.6836H6.18254L4.85833 64.9102H4.76458ZM10.2227 64.4648C9.83598 64.4648 9.51958 64.1484 9.51958 63.7617C9.51958 63.375 9.83598 63.0586 10.2227 63.0586C10.6094 63.0586 10.9258 63.375 10.9258 63.7617C10.9258 64.1484 10.6094 64.4648 10.2227 64.4648ZM9.70708 72V65.6836H10.7266V72H9.70708ZM12.5285 72V65.6836H13.548V66.6211H13.6418C13.882 65.959 14.4738 65.5723 15.3293 65.5723C15.5226 65.5723 15.7394 65.5957 15.839 65.6133V66.6035C15.6281 66.5684 15.4347 66.5449 15.2121 66.5449C14.2394 66.5449 13.548 67.1602 13.548 68.0859V72H12.5285ZM17.1077 72V63.5449H20.2952C21.8831 63.5449 23.0081 64.6406 23.0081 66.2461V66.2578C23.0081 67.8633 21.8831 68.9824 20.2952 68.9824H18.1624V72H17.1077ZM20.0257 64.4824H18.1624V68.0449H20.0257C21.2327 68.0449 21.93 67.3828 21.93 66.2695V66.2578C21.93 65.1445 21.2327 64.4824 20.0257 64.4824ZM26.9076 72.1113C25.1088 72.1113 23.9955 70.8691 23.9955 68.8477V68.8359C23.9955 66.8086 25.1088 65.5723 26.9076 65.5723C28.7065 65.5723 29.8197 66.8086 29.8197 68.8359V68.8477C29.8197 70.8691 28.7065 72.1113 26.9076 72.1113ZM26.9076 71.209C28.1029 71.209 28.7768 70.3359 28.7768 68.8477V68.8359C28.7768 67.3418 28.1029 66.4746 26.9076 66.4746C25.7123 66.4746 25.0385 67.3418 25.0385 68.8359V68.8477C25.0385 70.3359 25.7123 71.209 26.9076 71.209ZM33.6138 72.1113C32.0142 72.1113 30.9654 70.8164 30.9654 68.8477V68.8359C30.9654 66.8555 32.0083 65.5723 33.6138 65.5723C34.481 65.5723 35.2368 66.0059 35.5825 66.6797H35.6763V63.1758H36.6958V72H35.6763V70.9922H35.5825C35.1958 71.6953 34.4927 72.1113 33.6138 72.1113ZM33.8482 71.209C34.9966 71.209 35.6997 70.3066 35.6997 68.8477V68.8359C35.6997 67.377 34.9966 66.4746 33.8482 66.4746C32.6939 66.4746 32.0083 67.3652 32.0083 68.8359V68.8477C32.0083 70.3184 32.6939 71.209 33.8482 71.209ZM40.7008 72.1113C39.2946 72.1113 38.3278 71.4316 38.2106 70.3887H39.2536C39.4235 70.916 39.9274 71.2617 40.736 71.2617C41.5856 71.2617 42.1891 70.8574 42.1891 70.2832V70.2715C42.1891 69.8438 41.8668 69.5449 41.0875 69.3574L40.109 69.123C38.9254 68.8418 38.3922 68.3262 38.3922 67.418V67.4121C38.3922 66.3633 39.4 65.5723 40.7418 65.5723C42.0661 65.5723 42.986 66.2344 43.1266 67.2656H42.1247C41.9899 66.7676 41.4977 66.4219 40.736 66.4219C39.986 66.4219 39.4352 66.8086 39.4352 67.3652V67.377C39.4352 67.8047 39.7516 68.0742 40.4957 68.2559L41.4684 68.4902C42.6579 68.7773 43.2321 69.293 43.2321 70.1953V70.207C43.2321 71.332 42.1364 72.1113 40.7008 72.1113ZM48.078 72V63.5449H51.2655C52.8534 63.5449 53.9784 64.6406 53.9784 66.2461V66.2578C53.9784 67.8633 52.8534 68.9824 51.2655 68.9824H49.1327V72H48.078ZM50.996 64.4824H49.1327V68.0449H50.996C52.203 68.0449 52.9003 67.3828 52.9003 66.2695V66.2578C52.9003 65.1445 52.203 64.4824 50.996 64.4824ZM55.458 72V65.6836H56.4775V66.6211H56.5713C56.8115 65.959 57.4033 65.5723 58.2588 65.5723C58.4522 65.5723 58.6689 65.5957 58.7686 65.6133V66.6035C58.5576 66.5684 58.3643 66.5449 58.1416 66.5449C57.1689 66.5449 56.4775 67.1602 56.4775 68.0859V72H55.458ZM62.3282 72.1113C60.5294 72.1113 59.4161 70.8691 59.4161 68.8477V68.8359C59.4161 66.8086 60.5294 65.5723 62.3282 65.5723C64.1271 65.5723 65.2404 66.8086 65.2404 68.8359V68.8477C65.2404 70.8691 64.1271 72.1113 62.3282 72.1113ZM62.3282 71.209C63.5236 71.209 64.1974 70.3359 64.1974 68.8477V68.8359C64.1974 67.3418 63.5236 66.4746 62.3282 66.4746C61.1329 66.4746 60.4591 67.3418 60.4591 68.8359V68.8477C60.4591 70.3359 61.1329 71.209 62.3282 71.209Z" fill="black" fill-opacity="0.8"/>
<a href="https://www.apple.com/airpods-pro/">
<rect fill="black" fill-opacity="0" x="0.137623" y="0.839844" width="65.1047" height="14.3203"/>
</a>
<defs>
<clipPath id="clip0_1_40164">
<rect width="39" height="56" fill="white" transform="translate(13.6113)"/>
</clipPath>
<clipPath id="clip1_1_40164">
<rect width="39" height="54" fill="white" transform="translate(13.6113 2)"/>
</clipPath>
</defs>
</svg>
